# xmcd CD database file
#
# Track frame offsets:
#	150
#	20813
#	41932
#	68734
#	94818
#	118966
#	136350
#	171141
#
# Disc length: 2681 seconds
#
# Revision: 1
# Processed by: cddbd v1.5.2PL0 Copyright (c) Steve Scherf et al.
# Submitted via: CDex 1.51
#
DISCID=750a7708
DTITLE=Spiral Dance - Through A Sylvan Doorway Disc 1
DYEAR=2012
DGENRE=New Age
TTITLE0=Spiral Dance - The Sylvan Doorway 
TTITLE1=Spiral Dance - Fae Dance
TTITLE2=Spiral Dance - Spirit Of Albion and Wooden Box
TTITLE3=Spiral Dance - Asgard's Chase 
TTITLE4=Spiral Dance - The Wyvern Rider's Tune Set 
TTITLE5=Spiral Dance - Gift Of The Boinne 
TTITLE6=Spiral Dance - Rise Up
TTITLE7=Spiral Dance - Winter's Dreaming 
EXTD=YEAR: 2012
EXTT0=
EXTT1=
EXTT2=
EXTT3=
EXTT4=
EXTT5=
EXTT6=
EXTT7=
PLAYORDER=
